<svg id="Capa_1" enable-background="new 0 0 512 512" height="512" viewBox="0 0 512 512" width="512" xmlns="http://www.w3.org/2000/svg"><g><g><path d="m459.5 502v-109.678c0-25.628-16.279-48.427-40.519-56.746l-108.297-37.171c-6.06-2.08-10.627-6.875-12.532-12.746-.635-1.957-.974-4.034-.974-6.169l15-39.012h-112.356v39.012c0 8.543-5.426 16.142-13.506 18.915l-108.295 37.17c-24.241 8.32-40.521 31.12-40.521 56.749v109.676c0 5.523 4.477 10 10 10h402c5.523 0 10-4.477 10-10z" fill="#f1eff1"/><path d="m231.087 504.309c21.067-19.526 42.72-40.974 64.557-64.477 37.897-40.788 69.956-80.885 96.976-118.453l-56.534-19.404c-25.434 32.071-55.177 66.063-89.771 100.5-40.595 40.411-80.516 74.115-117.356 102.001l-8.959 7.524h103z" fill="#d3ced4"/><g><path d="m433.979 335.575-108.295-37.17c-8.08-2.773-13.507-10.373-13.507-18.916v-39.011l-30 15v39.012c0 8.543 5.426 16.142 13.506 18.915l108.297 37.171c24.24 8.32 40.519 31.118 40.519 56.746v104.678h20c5.523 0 10-4.477 10-10v-109.676c.001-25.63-16.279-48.429-40.52-56.749z" fill="#dfdce0"/></g><path d="m320.028 321.76 57.743 19.819c5.108-6.805 10.062-13.544 14.849-20.2l-56.534-19.404c-5.17 6.518-10.528 13.12-16.058 19.785z" fill="#c7c2c9"/><path d="m198.137 370.726c37.662-26.528 76.041-55.004 114.875-85.565-.536-1.812-.834-3.714-.834-5.671v-39.012h-31.833c-1.876 1.207-4.797 3.1-8.339 5.454-27.096 18.007-34.075 25.485-49.391 33.611-5.739 3.045-14.387 7.104-25.804 10.486-1.172 1.843-3.317 4.629-6.883 6.719-1.131.663-2.338 1.22-3.612 1.658l-18.229 6.257c-4.248 2.08-8.453 4.105-12.603 6.066 5.987 9.02 12.25 18.179 18.801 27.453 7.981 11.301 15.947 22.147 23.852 32.544z" fill="#c7c2c9"/><path d="m282.178 294.489c0 4.298 1.376 8.356 3.771 11.683 8.995-6.896 18.015-13.892 27.063-21.012 0-.001-.001-.002-.001-.004-.133-.45-.252-.904-.354-1.365-.311-1.412-.48-2.852-.479-4.302v-.001-39.011l-30 15z" fill="#b0aab3"/><path d="m256 7.5c46.738 0 86.057 37.151 91.435 86.394 3.678 33.677 1.408 67.786-6.693 100.581l-.76 3.077c-10.004 40.499-44.509 68.742-83.981 68.742-39.473 0-73.977-28.243-83.981-68.742l-.76-3.077c-8.101-32.795-10.371-66.904-6.693-100.581 5.376-49.243 44.694-86.394 91.433-86.394z" fill="#f1eff1"/><path d="m347.435 93.895c-5.378-49.244-44.697-86.395-91.435-86.395-5.102 0-10.109.468-15 1.321 39.911 6.96 71.644 41.207 76.435 85.074 3.678 33.677 1.408 67.786-6.693 100.581l-.76 3.078c-8.712 35.269-36.008 61.234-68.981 67.354 4.89.908 9.902 1.388 15 1.388 39.473 0 73.977-28.243 83.981-68.742l.76-3.078c8.101-32.795 10.371-66.904 6.693-100.581z" fill="#dfdce0"/><path d="m266.215 120.323c-29.44-29.618-53.84-58.785-73.911-85.653-12.224 12.427-21.247 28.437-25.548 46.587 39.34 51.088 104.593 114.75 155.599 152.32 8.14-10.228 14.268-22.431 17.626-36.024.713-2.884 1.716-6.842 2.331-9.806-24.214-18.865-49.999-41.168-76.097-67.424z" fill="#c7c2c9"/><path d="m347.435 93.895c-2.161-19.791-9.813-37.62-21.217-51.878-17.143 26.381-40.002 56.378-70.146 86.335-29.28 29.099-58.522 51.293-84.34 68.044l.286 1.157c3.91 15.83 11.576 29.774 21.807 40.905 27.808-17.607 59.904-41.333 92.251-72.92 24.751-24.169 44.983-48.386 61.429-70.917-.025-.242-.044-.485-.07-.726z" fill="#dfdce0"/><path d="m326.218 42.017c-4.894 7.531-10.272 15.365-16.134 23.401 3.829 9.116 6.254 18.438 7.351 28.477 1.318 12.071 1.652 36.515 1.652 36.515 10.534-12.217 19.979-24.226 28.42-35.789-2.136-20.165-9.66-38.07-21.289-52.604z" fill="#c7c2c9"/><path d="m321.438 36.501c-17.433 1.815-36.112 2.89-55.921 2.828-26.311-.081-50.617-2.14-72.587-5.278-11.796 11.772-20.684 26.841-25.337 43.952 27.121 4.87 58.302 8.426 92.844 8.836 30.991.368 59.436-1.86 84.843-5.422-4.079-17.338-12.471-32.725-23.842-44.916z" fill="#d3ced4"/><path d="m345.279 81.417c-.324-1.037-.563-2.037-.766-3.021-4.311-16.106-12.37-30.418-23.076-41.896-9.02.939-18.38 1.675-28.051 2.163 4.134 4.706 7.864 9.937 11.059 15.409 5.499 9.42 9.399 19.878 11.561 30.668 0 .001 0 .002.001.003 10.151-.886 19.919-2.014 29.272-3.326z" fill="#c4bdc5"/><path d="m258.802 223.634c-26.473-.314-51.086 1.267-73.539 3.953 15.936 23.746 42.015 38.708 70.736 38.708 28.357 0 54.149-14.576 70.136-37.801-20.645-2.739-43.159-4.573-67.333-4.86z" fill="#d3ced4"/><path d="m312.107 226.82c-4.663-.499-9.297-.785-13.98-1.32-.009-.001-.017-.001-.026-.002-13.063 20.648-33.639 35.054-57.098 39.41 4.888.908 9.9 1.388 14.996 1.388 28.357 0 54.149-14.576 70.136-37.801-4.637-.616-9.347-1.174-14.028-1.675z" fill="#c4bdc5"/><path d="m474.5 392.322c0-17.146-7.294-33.017-19.376-44.141-25.222 31.716-54.649 65.287-88.809 99.292-20.819 20.725-41.461 39.685-61.601 57.003h90.887c6.664-6.317 13.35-12.858 20.043-19.646 22.189-22.505 41.711-44.88 58.856-66.461z" fill="#d3ced4"/><path d="m455.125 348.181h-.001c-6.674 8.393-13.652 16.918-20.925 25.544 7.222 9.107 10.301 21.987 10.301 33.597 0 18.528.243 29.378 0 46.704 10.726-12.047 20.714-23.969 30-35.657v-26.047c0-17.145-7.293-33.016-19.375-44.141z" fill="#c7c2c9"/><path d="m412.277 504.475c-32.549-20.99-85.245-56.481-131.592-102.001-12.142-11.926-30.697-31.2-50.228-53.289-15.475-17.503-29.709-34.676-42.777-51.31-.447.19-.9.37-1.365.529l-54.742 18.789c24.869 37.324 57.495 79.75 99.783 122.638 24.223 24.568 48.377 45.998 71.614 64.643l9.03 7.526h113z" fill="#dfdce0"/><path d="m145.685 447.472c-34.16-34.006-63.587-67.576-88.809-99.292-12.082 11.125-19.376 26.996-19.376 44.142v26.047c17.146 21.581 36.667 43.956 58.856 66.461 6.692 6.787 13.379 13.328 20.043 19.645l7.601 7.525h92l-8.714-7.525c-20.14-17.318-40.782-36.278-61.601-57.003z" fill="#c7c2c9"/><path d="m342.312 187.747c-8.533-6.648-17.264-13.733-26.133-21.258-1.588 10.915-3.732 21.613-6.537 32.341-1.786 6.83-4.27 13.301-7.361 19.336 6.812 5.4 13.515 10.539 20.074 15.411 8.14-10.228 14.268-22.431 17.626-36.024.713-2.885 1.716-6.841 2.331-9.806z" fill="#b0aab3"/></g><path d="m436.415 328.477-108.302-37.171c-5.064-1.735-8.434-6.562-8.433-11.815v-31.833c13.521-13.056 22.889-29.308 27.583-48.306 8.608-34.844 11.534-70.503 7.628-106.271-5.796-53.065-48.309-93.081-98.891-93.081s-93.096 40.016-98.891 93.08c-1.332 12.2-1.91 24.611-1.717 36.889.064 4.102 3.409 7.382 7.497 7.382 4.185 0 7.567-3.433 7.501-7.618-.159-10.109.234-20.312 1.166-30.398 14.873 18.337 30.623 36.119 47.026 53.083-13.444 11.275-27.471 21.879-41.991 31.74-1.448-6.768-2.665-13.611-3.606-20.444-.565-4.104-4.346-6.972-8.453-6.407-4.104.564-6.972 4.349-6.408 8.452 4.09 29.734 12.079 60.578 34.194 81.899v31.833c0 5.338-3.389 10.086-8.435 11.816l-108.3 37.171c-9.078 3.12-17.156 8.052-23.904 14.298-.018.018-.038.034-.056.052-13.487 12.51-21.623 30.296-21.623 49.492v112.15c0 4.143 3.358 7.5 7.5 7.5s7.5-3.357 7.5-7.5v-65.048c14.656 17.517 30.072 34.503 46.016 50.674 6.539 6.632 13.343 13.301 20.224 19.822 3.002 2.846 7.749 2.726 10.603-.284 2.85-3.006 2.722-7.753-.284-10.603-6.758-6.406-13.441-12.956-19.861-19.467-19.895-20.176-38.952-41.648-56.698-63.839v-23.405c0-12.179 4.215-23.627 11.459-32.717 26.228 32.474 54.416 63.799 83.934 93.185 8.124 8.087 16.421 16.089 24.838 23.98.098.098.199.189.3.281 12.071 11.311 24.394 22.389 36.865 33.112 3.128 2.689 7.866 2.356 10.577-.797 2.7-3.141 2.343-7.876-.797-10.576-10.226-8.793-20.353-17.826-30.319-27.031 12.722-10.74 25.366-21.896 37.708-33.281 11.124 11.541 22.529 22.685 34.344 33.603-7.31 7.225-14.842 14.487-22.486 21.664-3.02 2.835-3.17 7.581-.334 10.602 2.839 3.024 7.587 3.164 10.601.334 7.942-7.456 15.763-15.004 23.347-22.51 10.856 9.68 21.948 19.095 33.242 28.157 3.211 2.576 7.937 2.091 10.543-1.156 2.592-3.23 2.075-7.951-1.156-10.543-63.166-50.678-118.689-110.648-164.401-177.519l41.867-14.369c27.462 34.643 60.616 71.933 90.299 101.087 44.64 43.845 93.365 77.533 132.783 102.953 3.446 2.222 8.101 1.276 10.368-2.238 2.245-3.48 1.243-8.123-2.239-10.367-.683-.44-1.383-.894-2.079-1.344 18.432-18.249 35.976-37.392 52.737-57.408v65.049c0 4.143 3.358 7.5 7.5 7.5s7.5-3.357 7.5-7.5v-112.151c-.001-28.817-18.319-54.473-45.586-63.843zm-227.157 99.1c-12.57 11.593-25.46 22.944-38.425 33.854-6.71-6.362-13.341-12.789-19.856-19.274-29.403-29.27-57.469-60.491-83.559-92.858 3.949-2.763 8.319-5.014 13.037-6.635l48.116-16.514c24.2 35.779 51.262 69.792 80.687 101.427zm111.509-204.577c-15.535-11.77-30.761-24.21-45.418-37.117 5.422-4.899 10.756-9.887 15.971-14.978 2.89-2.822 5.75-5.68 8.584-8.569 11.008 9.699 22.416 19.204 34.022 28.361-2.499 11.553-6.846 22.861-13.159 32.303zm-121.192 10.615c19.653-1.866 39.485-2.709 59.135-2.486 17.214.206 52.46 3.42 52.684 3.59-14.458 15.037-34.148 24.076-55.394 24.076-21.758 0-41.879-9.485-56.425-25.18zm26.767 35.115c-2.283 1.426-4.642 2.802-7.256 4.19-3.773 2.008-7.704 3.843-11.766 5.496v-18.927c5.962 3.797 12.339 6.901 19.022 9.241zm12.454-52.471c8.589-6.555 16.999-13.36 25.208-20.393 8.257 7.307 16.691 14.471 25.265 21.456-10.16-.666-20.315-1.072-30.38-1.191-6.683-.081-13.385-.031-20.093.128zm98.565-42.001c-9.222-7.417-18.29-15.041-27.101-22.792 10.888-11.702 21.307-23.885 31.19-36.469.737 19.88-.623 39.701-4.089 59.261zm-81.361-159.258c17.502 0 33.868 5.703 47.454 15.536-12.657.897-25.348 1.345-37.914 1.293-18.1-.056-36.344-1.085-54.441-3.056 13.064-8.741 28.479-13.773 44.901-13.773zm-60.305 26.989c23.635 3.197 47.642 4.843 71.409 4.843 17.007 0 34.234-.847 51.291-2.499 7.549 8.797 13.496 19.214 17.32 30.769-24.932 3.1-50.178 4.533-75.189 4.237-27.753-.331-55.688-2.781-83.168-7.278 4.203-11.371 10.488-21.558 18.337-30.072zm81.886 52.285c-4.115 4.762-8.314 9.458-12.597 14.066-4.535-4.674-9.014-9.407-13.429-14.184 8.678.243 17.343.281 26.026.118zm-95.976-6.358c16.177 2.451 32.488 4.215 48.815 5.272 7.819 8.783 15.92 17.488 24.184 25.993-1.27 1.289-2.541 2.577-3.822 3.85-6.75 6.708-13.701 13.23-20.827 19.567-16.9-17.442-33.107-35.765-48.35-54.682zm7.496 131.699c-3.655-6.117-6.612-12.793-8.725-19.928 29.063-19.271 56.262-41.451 80.98-66.018 12.749-12.671 25.044-26.248 36.451-40.134 13.87-.75 27.728-2.015 41.49-3.769.149.922.275 1.853.398 2.784-17.762 24.059-37.539 46.806-58.854 67.622-21.405 20.894-44.685 40.178-69.202 57.372-7.535.538-15.051 1.238-22.538 2.071zm9.484 79.952c1.035-.968 1.99-2.01 2.86-3.121 8.674-2.729 16.97-6.178 24.681-10.281 7.665-4.068 13.24-7.891 20.155-12.919 3.204.349 6.443.549 9.719.549 17.629 0 34.346-5.177 48.68-14.307.038 2.337-.108 20.401.132 22.567-24.284 19.043-49.158 37.866-74.088 56.064-10.959-12.576-21.729-25.495-32.139-38.552zm64.887 74.579c-7.547-7.972-15.307-16.397-22.773-24.736 23.516-17.186 46.975-34.917 69.934-52.862 3.193 4.035 7.511 7.197 12.613 8.946 0 0-38.894 46.661-59.774 68.652zm87.066 78.312c-10.685-8.108-21.618-16.819-32.516-26.089 8.378-9.396 16.671-18.97 24.711-28.562 2.661-3.175 2.244-7.905-.931-10.565-3.175-2.662-7.905-2.245-10.565.931-7.98 9.521-16.215 19.025-24.532 28.351-11.336-10.101-21.968-20.373-32.836-31.542 22.579-23.752 44.323-48.662 64.768-74.203l41.946 14.396c-8.866 12.113-18.001 24.149-27.271 35.876-2.568 3.249-2.016 7.966 1.234 10.534 3.229 2.551 7.952 2.034 10.535-1.233 10.343-13.086 20.521-26.551 30.346-40.083l36.115 12.396c4.718 1.621 9.088 3.872 13.037 6.635-26.073 32.354-54.141 63.574-83.563 92.858-3.525 3.51-7.031 6.954-10.478 10.3zm116.462-36.733c-17.781 22.229-36.839 43.7-56.699 63.837-2.907 2.947-5.887 5.906-8.885 8.856-11.841-7.85-24.953-16.837-38.695-26.887 2.933-2.859 5.899-5.777 8.879-8.746 29.536-29.397 57.725-60.723 83.938-93.183 7.246 9.09 11.461 20.539 11.461 32.718v23.405z"/></g></svg>